# xmcd
#
# Track frame offsets: 
#        150
#        20138
#        33159
#        53011
#        69901
#        101871
#        118421
#        136051
#        158866
#        172646
#        195439
#        217783
#        232815
#        246052
#        261435
#        282293
#        299963
#        318173
#
# Disc length: 4565 seconds
#
# Revision: 0
# Processed by: cddbd v1.5.1PL0 Copyright (c) Steve Scherf et al.
# Submitted via: ExactAudioCopy v0.95a4
#
DISCID=fe11d312
DTITLE=Eric Clapton - The Best Of (China)
DYEAR=2004
DGENRE=Blues
TTITLE0=I Shot The Sheriff
TTITLE1=After Midnight
TTITLE2=Knockin' On Heaven's Door
TTITLE3=Wonderful Tonight
TTITLE4=Layla
TTITLE5=Cocaine
TTITLE6=Lay Down Sally
TTITLE7=Bell Bottom Blues
TTITLE8=Promises
TTITLE9=Let It Rain
TTITLE10=Let It Grow
TTITLE11=When You Got A Good Friend
TTITLE12=Me And The Devil Blues
TTITLE13=They're Red Hot
TTITLE14=Tears In Heaven
TTITLE15=Change The World
TTITLE16=Love In Vain
TTITLE17=My Father's Eyes
EXTD=
EXTT0=
EXTT1=
EXTT2=
EXTT3=
EXTT4=
EXTT5=
EXTT6=
EXTT7=
EXTT8=
EXTT9=
EXTT10=
EXTT11=
EXTT12=
EXTT13=
EXTT14=
EXTT15=
EXTT16=
EXTT17=
PLAYORDER=
